<?xml version="1.0" standalone="no"?>
<!DOCTYPE svg PUBLIC "-//W3C//DTD SVG 20010904//EN"
 "http://www.w3.org/TR/2001/REC-SVG-20010904/DTD/svg10.dtd">
<svg version="1.0" xmlns="http://www.w3.org/2000/svg"
 width="16.000000pt" height="16.000000pt" viewBox="0 0 16.000000 16.000000"
 preserveAspectRatio="xMidYMid meet">
<metadata>
Created by potrace 1.11, written by Peter Selinger 2001-2013
</metadata>
<g transform="translate(0.000000,16.000000) scale(0.001677,-0.001677)"
fill="#000000" stroke="none">
<path d="M3790 9454 c0 -8 31 -60 69 -116 76 -114 105 -168 94 -169 -5 0 -17
-2 -28 -4 -11 -2 -38 -6 -61 -10 -204 -30 -542 -112 -639 -155 -11 -5 -62 -25
-114 -45 -191 -75 -408 -191 -536 -287 -151 -113 -322 -273 -412 -383 -93
-116 -201 -284 -255 -400 -28 -61 -34 -67 -132 -145 -147 -117 -317 -301 -405
-440 -88 -140 -169 -338 -185 -450 -3 -25 -9 -58 -12 -75 -15 -74 -9 -336 11
-483 20 -147 107 -385 176 -483 18 -26 18 -27 -2 -45 -12 -11 -24 -18 -28 -18
-6 2 -20 -2 -61 -17 -101 -35 -246 -48 -395 -35 -44 4 -109 9 -144 12 -36 2
-75 6 -88 9 -34 6 -38 -15 -14 -72 11 -26 36 -91 56 -143 20 -52 54 -125 75
-162 51 -85 175 -210 275 -278 102 -69 267 -146 322 -151 5 0 13 -4 18 -9 14
-11 234 -58 305 -65 14 -2 50 -4 81 -5 71 -3 81 -10 84 -51 6 -75 16 -177 19
-195 2 -10 7 -41 10 -69 4 -27 9 -57 11 -65 2 -8 7 -31 10 -50 10 -58 43 -189
70 -280 15 -47 28 -92 30 -101 9 -42 115 -296 169 -404 194 -394 500 -791 831
-1080 38 -33 80 -70 93 -82 13 -12 44 -37 68 -55 46 -35 61 -61 69 -118 6 -45
14 -90 21 -112 3 -10 7 -30 10 -45 7 -39 8 -44 49 -178 21 -66 37 -121 37
-122 -1 -2 17 -45 57 -138 140 -320 335 -567 566 -712 66 -42 260 -133 283
-133 5 0 35 -11 66 -25 64 -28 96 -32 96 -10 0 25 16 17 65 -31 129 -125 344
-280 545 -394 193 -108 492 -227 740 -293 99 -27 113 -24 103 17 -49 207 -46
200 -183 466 -37 72 -79 183 -86 225 -2 11 -9 45 -17 75 -8 34 -12 105 -11
185 1 122 5 167 21 240 4 17 7 32 8 35 11 73 92 275 153 383 131 234 340 487
520 630 274 217 543 502 751 792 39 55 74 105 79 110 10 14 104 165 118 190 6
11 28 52 50 90 22 39 46 86 54 105 7 19 19 42 25 50 7 8 16 26 20 38 4 13 16
45 28 70 12 26 22 49 22 52 1 3 5 12 8 20 14 32 87 241 91 262 3 13 17 70 31
128 30 118 30 118 40 180 3 25 9 59 12 75 7 44 11 80 18 180 8 125 11 135 38
134 77 -3 263 22 382 52 329 84 590 273 727 529 14 25 52 93 86 152 89 154 92
140 -24 133 -190 -11 -379 -14 -424 -5 -25 4 -61 11 -80 14 -19 3 -53 11 -75
17 -22 6 -51 13 -65 16 -14 4 -38 14 -55 23 -36 21 -36 40 3 107 15 26 36 68
46 93 10 25 27 63 36 85 96 221 131 550 84 800 -7 39 -44 174 -54 200 -10 25
-22 60 -20 60 1 0 -18 38 -41 85 -44 88 -152 259 -188 297 -12 12 -21 24 -21
27 0 3 -10 16 -22 29 -13 13 -53 54 -89 93 -89 93 -126 126 -272 244 -11 8
-41 47 -67 86 -41 60 -109 149 -193 252 -36 44 -330 335 -366 362 -18 14 -47
37 -65 51 -55 46 -201 155 -242 179 -21 13 -40 28 -42 32 -2 4 -8 8 -13 8 -7
0 -63 33 -165 97 -59 38 -372 193 -389 193 -3 0 -24 9 -48 19 -55 25 -114 47
-207 78 -41 13 -82 27 -90 30 -8 3 -19 7 -25 8 -5 2 -37 11 -70 20 -33 10 -61
17 -62 17 -2 -1 -21 5 -43 13 -22 8 -40 12 -40 10 0 -3 -12 0 -27 6 -15 5 -72
19 -128 30 -55 11 -109 22 -120 25 -11 2 -67 11 -125 19 -58 9 -116 18 -129
20 -13 2 -58 7 -100 11 -42 4 -89 8 -106 10 -81 9 -327 17 -465 16 -194 -2
-219 -1 -357 2 -89 2 -113 0 -113 -10z"/>
</g>
</svg>
